<?xml version="1.0" encoding="utf-8" ?>
<svg baseProfile="full" height="200mm" version="1.1" viewBox="0,0,200,200" width="200mm" xmlns="http://www.w3.org/2000/svg" xmlns:ev="http://www.w3.org/2001/xml-events" xmlns:xlink="http://www.w3.org/1999/xlink"><defs /><rect fill="#1a1a1a" height="200" width="200" x="0" y="0" /><text alignment-baseline="middle" fill="#e1ed5e" style="dominant-baseline: central; font-size:9.0px; font-family:Arial;" text-anchor="middle" x="100.0" y="100.0">2022</text><line stroke="#e1ed5e" stroke-width="0.3" x1="100.0" x2="100.0" y1="15.0" y2="10.0" /><path d="M 100.0 14.0 a86.0,86.0 0 0,1 42.46469731375804,11.215312516191453" fill="none" id="id49" stroke="none" /><text fill="#e1ed5e" style="font-size:6.75px; font-family:Arial;" text-anchor="middle"><textPath startOffset="22.20632615414155" xlink:href="#id49">January</textPath></text><path d="M 100.0 79.0 l 0.0 -35.989568875472195 a56.989568875472195,56.989568875472195 0 0,0 0.980981746220974,0.008443619596714226 l -0.6195012669484457 35.98423663248404" fill="#d2ff1c" stroke="none" /><path d="M 100.72285384407766 79.0124445844662 l 0.9941622803719975 -28.864805966362255 a49.88192137160297,49.88192137160297 0 0,0 0.8578720572089973,0.03694177536522777 l -1.4908751699703262 28.84341646447283" fill="#ffad10" stroke="none" /><path d="M 101.44485096284872 79.0497635885617 l 1.3919555046284666 -20.18325602155733 a41.23119778358651,41.23119778358651 0 0,0 0.7076251516926796,0.05492533084054263 l -1.7391708456834876 20.156305428528324" fill="#ff0000" stroke="none" /><path d="M 102.88285421437855 79.19881850522331 l 5.038796349009983 -36.357342264554525 a57.704847162040586,57.704847162040586 0 0,0 0.9827163487985316,0.14482684457560932 l -5.66388167823717 36.26522093581794" fill="#c6ff1e" stroke="none" /><path d="M 105.36241919743992 79.69619591428918 l 10.959322360532166 -41.49543814601932 a63.91827272307421,63.91827272307421 0 0,0 1.061354124557642,0.29010817512593157 l -11.67197437431352 41.3006434300671" fill="#64ff29" stroke="none" /><path d="M 106.74666289553966 80.11325718540242 l 9.298702916810436 -27.409241617542836 a49.94360727317763,49.94360727317763 0 0,0 0.8117453306824715,0.28320200683772984 l -9.769130251556183 27.2451187575329" fill="#ffae10" stroke="none" /><path d="M 107.4271985657038 80.35727306442388 l 21.362571681744274 -56.49763615097459 a81.40150957969158,81.40150957969158 0 0,0 1.30636567251414,0.5068495853270581 l -22.331920519258084 56.12154386175698" fill="#48f5ff" stroke="none" /><path d="M 108.76106565485865 80.91482961587045 l 12.052759031987913 -26.255819644129463 a49.890085937363025,49.890085937363025 0 0,0 0.7773868170876524,0.364993534241834 l -12.502924060375163 26.044461127247626" fill="#ffad10" stroke="none" /><path d="M 109.41281617654863 81.2277094730956 l 12.932206395454307 -25.79112680583275 a49.85176223680581,49.85176223680581 0 0,0 0.7637753178529137,0.3912353829985531 l -13.374242200895976 25.564698897521694" fill="#ffad10" stroke="none" /><path d="M 110.36928655335952 81.73862282372117 l 31.107859660078564 -54.7841315288365 a84.0,84.0 0 0,0 1.2512130701386868,0.7247833704398019 l -32.04626946268258 54.24054400100664" fill="#4dd2ff" stroke="none" /><line stroke="#e1ed5e" stroke-width="0.3" x1="143.23703022742887" x2="145.7803849466894" y1="26.81831364943548" y2="22.513508569990506" /><path d="M 143.74570117128098 25.957352633546492 a86.0,86.0 0 0,1 28.547481713284135,27.462654790039103" fill="none" id="id50" stroke="none" /><text fill="#e1ed5e" style="font-size:6.75px; font-family:Arial;" text-anchor="middle"><textPath startOffset="19.985693538727396" xlink:href="#id50">February</textPath></text><path d="M 110.68208982089419 81.91981866633111 l 14.665657127535015 -24.822646569082146 a49.831324660445006,49.831324660445006 0 0,0 0.734746114547537,0.4426763128845032 l -15.09076530830019 24.56652364673903" fill="#ffac0f" stroke="none" /><path d="M 111.2981086023043 82.29822771554956 l 15.542092825314743 -24.351207596057293 a49.88837068401364,49.88837068401364 0 0,0 0.7198962546263323,0.46824054922606434 l -15.958956105725356 24.0800681226717" fill="#ffad10" stroke="none" /><path d="M 111.90073688211348 82.69761687909136 l 16.353079155394372 -23.775606801158805 a49.85658809745017,49.85658809745017 0 0,0 0.7029039629647326,0.492429145689825 l -16.759914257942757 23.490592812705046" fill="#ffad10" stroke="none" /><path d="M 112.48926042617603 83.11751280151076 l 17.188160269126673 -23.234273752585985 a49.900939954390594,49.900939954390594 0 0,0 0.686147063947727,0.5167917432449901 l -17.585553486832783 22.934965419835144" fill="#ffad10" stroke="none" /><path d="M 113.06298171725822 83.55741782278167 l 16.534648911041188 -20.812424710972596 a47.58103904969289,47.58103904969289 0 0,0 0.6368984937923288,0.5149942886586927 l -16.890450803398007 20.52472432504977" fill="#ff810b" stroke="none" /><path d="M 113.89432698308785 84.25364557470407 l 38.48028808215952 -43.60947135235159 a79.15942367766003,79.15942367766003 0 0,0 1.0139531046440178,0.9103371087336212 l -39.22525217439952 42.94063523484868" fill="#44ffe9" stroke="none" /><path d="M 115.68641384162765 86.03803664274999 l 23.088013670234524 -20.54988502216219 a51.90880375655166,51.90880375655166 0 0,0 0.5883198879047644,0.672551333251033 l -23.438325421717135 20.14941813270821" fill="#ffd313" stroke="none" /><path d="M 115.9244219780498 86.31012108654704 l 22.532631009860584 -19.37081236302955 a50.714438103895375,50.714438103895375 0 0,0 0.5633876263144437,0.6668732479513967 l -22.862729249662145 18.98008016544905" fill="#ffbd11" stroke="none" /><path d="M 117.45458315368197 88.32363383020206 l 28.78938623539615 -19.258862416162344 a55.63715550352667,55.63715550352667 0 0,0 0.5256475643340017,0.8005973030871857 l -29.11663043508808 18.760447049097486" fill="#e9ff1a" stroke="none" /><line stroke="#e1ed5e" stroke-width="0.3" x1="172.23445277983987" x2="176.4835382374775" y1="55.19839476539836" y2="52.563006222186495" /><path d="M 173.08426987136738 54.67131705675599 a86.0,86.0 0 0,1 12.851231095245387,41.99856678651699" fill="none" id="id51" stroke="none" /><text fill="#e1ed5e" style="font-size:6.75px; font-family:Arial;" text-anchor="middle"><textPath startOffset="22.20632615414155" xlink:href="#id51">March</textPath></text><line stroke="#e1ed5e" stroke-width="0.3" x1="184.98032266829074" x2="189.97916517819016" y1="98.17113171792111" y2="98.06355123074" /><path d="M 185.9800911702706 98.14961562048488 a86.0,86.0 0 0,1 -9.607161424134198,41.387399972396054" fill="none" id="id52" stroke="none" /><text fill="#e1ed5e" style="font-size:6.75px; font-family:Arial;" text-anchor="middle"><textPath startOffset="21.466115282336823" xlink:href="#id52">April</textPath></text><line stroke="#e1ed5e" stroke-width="0.3" x1="174.80103733775053" x2="179.2010983576182" y1="140.37084112569926" y2="142.7455964860345" /><path d="M 175.68104954172406 140.8457921977663 a86.0,86.0 0 0,1 -30.038265399797805,32.042727171017184" fill="none" id="id53" stroke="none" /><text fill="#e1ed5e" style="font-size:6.75px; font-family:Arial;" text-anchor="middle"><textPath startOffset="22.206326154141568" xlink:href="#id53">May</textPath></text><line stroke="#e1ed5e" stroke-width="0.3" x1="143.8653032363475" x2="146.44561519142675" y1="172.8068346515853" y2="177.08958963109032" /><path d="M 144.38136562736335 173.6633856474863 a86.0,86.0 0 0,1 -40.68145358897372,12.25698825130547" fill="none" id="id54" stroke="none" /><text fill="#e1ed5e" style="font-size:6.75px; font-family:Arial;" text-anchor="middle"><textPath startOffset="21.466115282336833" xlink:href="#id54">June</textPath></text><line stroke="#e1ed5e" stroke-width="0.3" x1="102.19456741930631" x2="102.32365962044197" y1="184.97166512339345" y2="189.96999836594603" /><path d="M 102.22038585953345 185.97133177190398 a86.0,86.0 0 0,1 -42.740103519485714,-10.115201625700543" fill="none" id="id55" stroke="none" /><text fill="#e1ed5e" style="font-size:6.75px; font-family:Arial;" text-anchor="middle"><textPath startOffset="22.20632615414155" xlink:href="#id55">July</textPath></text><line stroke="#e1ed5e" stroke-width="0.3" x1="58.666819895761336" x2="56.23545636021788" y1="174.27360380694188" y2="178.64263932499728" /><path d="M 58.180547188652646 175.14741091055294 a86.0,86.0 0 0,1 -31.652253787137756,-30.449443065178592" fill="none" id="id56" stroke="none" /><text fill="#e1ed5e" style="font-size:6.75px; font-family:Arial;" text-anchor="middle"><textPath startOffset="22.20632615414155" xlink:href="#id56">August</textPath></text><line stroke="#e1ed5e" stroke-width="0.3" x1="26.63291911575756" x2="22.317208475507996" y1="142.92168965132927" y2="145.44649492493687" /><path d="M 25.769776987707644 143.4266507060508 a86.0,86.0 0 0,1 -11.730757126820373,-40.83630448921669" fill="none" id="id57" stroke="none" /><text fill="#e1ed5e" style="font-size:6.75px; font-family:Arial;" text-anchor="middle"><textPath startOffset="21.46611528233685" xlink:href="#id57">September</textPath></text><line stroke="#e1ed5e" stroke-width="0.3" x1="15.007084014347285" x2="10.007500721073583" y1="101.09737516637583" y2="101.16192664675087" /><path d="M 14.007167355692545 101.11028546245083 a86.0,86.0 0 0,1 10.666146001902534,-42.60595125391555" fill="none" id="id58" stroke="none" /><text fill="#e1ed5e" style="font-size:6.75px; font-family:Arial;" text-anchor="middle"><textPath startOffset="22.20632615414155" xlink:href="#id58">October</textPath></text><line stroke="#e1ed5e" stroke-width="0.3" x1="26.266209847984243" x2="21.928928074336255" y1="57.711370442889674" y2="55.22380399835377" /><path d="M 25.398753493254645 57.213857153982495 a86.0,86.0 0 0,1 29.58750427330803,-30.492523968695096" fill="none" id="id59" stroke="none" /><text fill="#e1ed5e" style="font-size:6.75px; font-family:Arial;" text-anchor="middle"><textPath startOffset="21.46611528233685" xlink:href="#id59">November</textPath></text><line stroke="#e1ed5e" stroke-width="0.3" x1="56.762969772571076" x2="54.21961505331055" y1="26.818313649435495" y2="22.513508569990535" /><path d="M 56.25429882871897 25.957352633546506 a86.0,86.0 0 0,1 42.265352541879196,-11.944610805530505" fill="none" id="id60" stroke="none" /><text fill="#e1ed5e" style="font-size:6.75px; font-family:Arial;" text-anchor="middle"><textPath startOffset="22.20632615414155" xlink:href="#id60">December</textPath></text></svg>