<?xml version="1.0" encoding="utf-8" ?>
<svg baseProfile="full" height="200mm" version="1.1" viewBox="0,0,200,200" width="200mm" xmlns="http://www.w3.org/2000/svg" xmlns:ev="http://www.w3.org/2001/xml-events" xmlns:xlink="http://www.w3.org/1999/xlink"><defs /><rect fill="#1a1a1a" height="200" width="200" x="0" y="0" /><text alignment-baseline="middle" fill="#e1ed5e" style="dominant-baseline: central; font-size:9.0px; font-family:Arial;" text-anchor="middle" x="100.0" y="100.0">2018</text><line stroke="#e1ed5e" stroke-width="0.3" x1="100.0" x2="100.0" y1="15.0" y2="10.0" /><path d="M 100.0 14.0 a86.0,86.0 0 0,1 42.46469731375804,11.215312516191453" fill="none" id="id1" stroke="none" /><text fill="#e1ed5e" style="font-size:6.75px; font-family:Arial;" text-anchor="middle"><textPath startOffset="22.20632615414155" xlink:href="#id1">January</textPath></text><line stroke="#e1ed5e" stroke-width="0.3" x1="143.23703022742887" x2="145.7803849466894" y1="26.81831364943548" y2="22.513508569990506" /><path d="M 143.74570117128098 25.957352633546492 a86.0,86.0 0 0,1 28.547481713284135,27.462654790039103" fill="none" id="id2" stroke="none" /><text fill="#e1ed5e" style="font-size:6.75px; font-family:Arial;" text-anchor="middle"><textPath startOffset="19.985693538727396" xlink:href="#id2">February</textPath></text><line stroke="#e1ed5e" stroke-width="0.3" x1="172.23445277983987" x2="176.4835382374775" y1="55.19839476539836" y2="52.563006222186495" /><path d="M 173.08426987136738 54.67131705675599 a86.0,86.0 0 0,1 12.851231095245387,41.99856678651699" fill="none" id="id3" stroke="none" /><text fill="#e1ed5e" style="font-size:6.75px; font-family:Arial;" text-anchor="middle"><textPath startOffset="22.20632615414155" xlink:href="#id3">March</textPath></text><line stroke="#e1ed5e" stroke-width="0.3" x1="184.98032266829074" x2="189.97916517819016" y1="98.17113171792111" y2="98.06355123074" /><path d="M 185.9800911702706 98.14961562048488 a86.0,86.0 0 0,1 -9.607161424134198,41.387399972396054" fill="none" id="id4" stroke="none" /><text fill="#e1ed5e" style="font-size:6.75px; font-family:Arial;" text-anchor="middle"><textPath startOffset="21.466115282336823" xlink:href="#id4">April</textPath></text><line stroke="#e1ed5e" stroke-width="0.3" x1="174.80103733775053" x2="179.2010983576182" y1="140.37084112569926" y2="142.7455964860345" /><path d="M 175.68104954172406 140.8457921977663 a86.0,86.0 0 0,1 -30.038265399797805,32.042727171017184" fill="none" id="id5" stroke="none" /><text fill="#e1ed5e" style="font-size:6.75px; font-family:Arial;" text-anchor="middle"><textPath startOffset="22.206326154141568" xlink:href="#id5">May</textPath></text><line stroke="#e1ed5e" stroke-width="0.3" x1="143.8653032363475" x2="146.44561519142675" y1="172.8068346515853" y2="177.08958963109032" /><path d="M 144.38136562736335 173.6633856474863 a86.0,86.0 0 0,1 -40.68145358897372,12.25698825130547" fill="none" id="id6" stroke="none" /><text fill="#e1ed5e" style="font-size:6.75px; font-family:Arial;" text-anchor="middle"><textPath startOffset="21.466115282336833" xlink:href="#id6">June</textPath></text><line stroke="#e1ed5e" stroke-width="0.3" x1="102.19456741930631" x2="102.32365962044197" y1="184.97166512339345" y2="189.96999836594603" /><path d="M 102.22038585953345 185.97133177190398 a86.0,86.0 0 0,1 -42.740103519485714,-10.115201625700543" fill="none" id="id7" stroke="none" /><text fill="#e1ed5e" style="font-size:6.75px; font-family:Arial;" text-anchor="middle"><textPath startOffset="22.20632615414155" xlink:href="#id7">July</textPath></text><line stroke="#e1ed5e" stroke-width="0.3" x1="58.666819895761336" x2="56.23545636021788" y1="174.27360380694188" y2="178.64263932499728" /><path d="M 58.180547188652646 175.14741091055294 a86.0,86.0 0 0,1 -31.652253787137756,-30.449443065178592" fill="none" id="id8" stroke="none" /><text fill="#e1ed5e" style="font-size:6.75px; font-family:Arial;" text-anchor="middle"><textPath startOffset="22.20632615414155" xlink:href="#id8">August</textPath></text><line stroke="#e1ed5e" stroke-width="0.3" x1="26.63291911575756" x2="22.317208475507996" y1="142.92168965132927" y2="145.44649492493687" /><path d="M 25.769776987707644 143.4266507060508 a86.0,86.0 0 0,1 -11.730757126820373,-40.83630448921669" fill="none" id="id9" stroke="none" /><text fill="#e1ed5e" style="font-size:6.75px; font-family:Arial;" text-anchor="middle"><textPath startOffset="21.46611528233685" xlink:href="#id9">September</textPath></text><path d="M 81.35079622478065 109.6543875284942 l -14.322859269358924 7.414709795075412 a37.12830490147827,37.12830490147827 0 0,0 -0.28893128455145967,-0.5700888353381061 l 14.44836922369665 -7.167066748034621" fill="#ffcd13" stroke="none" /><path d="M 80.73074385275274 108.34839909993369 l -27.928214516890034 12.099890060824563 a51.43669669306228,51.43669669306228 0 0,0 -0.34499086952032143,-0.8154565068906514 l 28.13235636760266 -11.617359028267753" fill="#89ff24" stroke="none" /><path d="M 80.58989483394504 108.01547362559985 l -3.4762339105587055 1.435523454825378 a24.760974579849226,24.760974579849226 0 0,0 -0.15929252067509075,-0.395350972831032 l 3.500429045491184 -1.3754731141515406" fill="#ff2603" stroke="none" /><path d="M 79.4281124754447 104.21870165774334 l -2.1712434355439676 0.44525949648325686 a23.21642822477997,23.21642822477997 0 0,0 -0.0769127841744558,-0.39217662948822785 l 2.17858615269409 -0.4078191399270742" fill="#ff0f01" stroke="none" /><line stroke="#e1ed5e" stroke-width="0.3" x1="15.007084014347285" x2="10.007500721073583" y1="101.09737516637583" y2="101.16192664675087" /><path d="M 14.007167355692545 101.11028546245083 a86.0,86.0 0 0,1 10.666146001902534,-42.60595125391555" fill="none" id="id10" stroke="none" /><text fill="#e1ed5e" style="font-size:6.75px; font-family:Arial;" text-anchor="middle"><textPath startOffset="22.20632615414155" xlink:href="#id10">October</textPath></text><path d="M 79.01574976396665 99.18683210126434 l -10.961134412716687 -0.42475868986933896 a31.969361310407344,31.969361310407344 0 0,0 0.026041924719078763,-0.5497038713116275 l 10.95219887976411 0.6133736678039754" fill="#ff890c" stroke="none" /><path d="M 79.05617556472873 98.46500227214037 l -13.960836894464231 -1.0232062906300794 a34.99828267706502,34.99828267706502 0 0,0 0.0492067791176904,-0.6004473414368868 l 13.941155631527042 1.2633675492747445" fill="#ffb110" stroke="none" /><path d="M 79.08570108090925 98.10471618934814 l -10.737774646402062 -0.9730725628664069 a31.781775112175097,31.781775112175097 0 0,0 0.05406363609180494,-0.5444134374046825 l 10.71943388462803 1.1577615309755196" fill="#ff870c" stroke="none" /><path d="M 79.12142395522702 97.74499172005258 l -11.470406267066972 -1.2388709388575587 a32.537114939824214,32.537114939824214 0 0,0 0.06493423816236601,-0.5563168979041702 l 11.447381675901017 1.4361315750865906" fill="#ff910d" stroke="none" /><path d="M 79.21141760316559 97.0276538004421 l -14.048649233230645 -2.008672277897784 a35.191522455266984,35.191522455266984 0 0,0 0.0909015568617472,-0.5989276838945735 l 14.011991782929595 2.2501990741844495" fill="#ffb410" stroke="none" /><path d="M 79.26566170972629 96.67025291283419 l -13.913850433364612 -2.2344384616069157 a35.09212365545906,35.09212365545906 0 0,0 0.10091181061215806,-0.5955872185230442 l 13.87332676123223 2.473611468445788" fill="#ffb310" stroke="none" /><path d="M 79.32604984820605 96.31383870115002 l -9.61509555077728 -1.7143696702269737 a30.766735678658,30.766735678658 0 0,0 0.0974489119677414,-0.5205759843591248 l 9.584160914899677 1.8796237320486713" fill="#ff790b" stroke="none" /><path d="M 79.3925641242962 95.95851677861259 l -13.90784682176593 -2.7275751294251473 a35.172786222347504,35.172786222347504 0 0,0 0.12163202381420257,-0.5931209448520822 l 13.858835502036731 2.9665717304406325" fill="#ffb410" stroke="none" /><path d="M 79.62865764111835 94.90015583598534 l -25.148883386569782 -6.295873090295654 a46.924975478491675,46.924975478491675 0 0,0 0.20290285239728206,-0.7818674595693406 l 25.036784202302194 6.727836975413858" fill="#bbff1f" stroke="none" /><path d="M 79.71946130924805 94.55025226153421 l -9.572603865863291 -2.5723318825355648 a30.912196330110184,30.912196330110184 0 0,0 0.14250997883831706,-0.5126842175367535 l 9.526907116458615 2.736727403491261" fill="#ff7b0b" stroke="none" /><path d="M 79.91906864156998 93.8553929516997 l -9.703548924447743 -2.9692096472237557 a31.147663162438807,31.147663162438807 0 0,0 0.161292264873826,-0.5113405567360418 l 9.651001175805714 3.135800370386212" fill="#ff7e0b" stroke="none" /><path d="M 80.14247586403 93.16781622104843 l -6.704012042756722 -2.306583742202314 a28.089718332149676,28.089718332149676 0 0,0 0.16124423837432658,-0.45585917526688313 l 6.663314723572586 2.4216405438958084" fill="#ff5507" stroke="none" /><path d="M 80.38941819471856 92.48833698450439 l -14.172190794627484 -5.428534578809908 a36.17629663628973,36.17629663628973 0 0,0 0.22774951222432302,-0.5795976667840822 l 14.07664773252147 5.671681250489755" fill="#ffc111" stroke="none" /><path d="M 80.65960295795068 91.81776055985345 l -9.882987245400715 -4.181143119759574 a31.731048163188255,31.731048163188255 0 0,0 0.217145067022833,-0.5012007532806363 l 9.8095514685352 4.350643017626809" fill="#ff860c" stroke="none" /><path d="M 80.803312248108 91.48605970444005 l -14.056596730823088 -6.234253891700437 a36.37705541510365,36.37705541510365 0 0,0 0.25879275212915465,-0.5702155250373564 l 13.947201661730583 6.475291425579864" fill="#ffc312" stroke="none" /><path d="M 80.95270993114464 91.15688171328213 l -4.991212282392659 -2.3172787544978997 a26.502906584156655,26.502906584156655 0 0,0 0.1956694526309992,-0.4121297691727063 l 4.950584635919907 2.402850939311138" fill="#ff3e05" stroke="none" /><path d="M 81.10775173730289 90.83032412892265 l -13.80874042849207 -6.702308383652219 a36.34934037315761,36.34934037315761 0 0,0 0.2780551222236204,-0.5605421592492701 l 13.691325293315037 6.93901013140045" fill="#ffc312" stroke="none" /><path d="M 81.43458229118936 90.18545643968196 l -9.574140793550782 -5.061336262115369 a31.82964896443727,31.82964896443727 0 0,0 0.26023299675776357,-0.4821722204494934 l 9.485599697574548 5.225389465897336" fill="#ff880c" stroke="none" /><path d="M 81.6062741919709 89.86733742301443 l -4.370650677836114 -2.407686676565279 a25.9899441359778,25.9899441359778 0 0,0 0.21923428604405085,-0.38999333205335013 l 4.328558750499632 2.482563518553414" fill="#ff3705" stroke="none" /><line stroke="#e1ed5e" stroke-width="0.3" x1="26.266209847984243" x2="21.928928074336255" y1="57.711370442889674" y2="55.22380399835377" /><path d="M 25.398753493254645 57.213857153982495 a86.0,86.0 0 0,1 29.58750427330803,-30.492523968695096" fill="none" id="id11" stroke="none" /><text fill="#e1ed5e" style="font-size:6.75px; font-family:Arial;" text-anchor="middle"><textPath startOffset="21.46611528233685" xlink:href="#id11">November</textPath></text><path d="M 82.15384107792192 88.93136811851018 l -5.072381302853728 -3.1460171148863645 a26.96879181817376,26.96879181817376 0 0,0 0.24807744485042094,-0.39239894182612434 l 5.017476261757345 3.2328637044267046" fill="#ff4506" stroke="none" /><path d="M 82.54541684631803 88.32363383020206 l -8.986372597806579 -6.011497156154876 a31.811706180111774,31.811706180111774 0 0,0 0.3083850039812042,-0.4525169406316057 l 8.881563128156634 6.165292120056898" fill="#ff870c" stroke="none" /><path d="M 82.7489923806493 88.02491185347247 l -3.1532646184549087 -2.1888936918077393 a24.838532707693826,24.838532707693826 0 0,0 0.2468327770802051,-0.3491274583787325 l 3.1151192215708257 2.242847650518258" fill="#ff2703" stroke="none" /><path d="M 82.95767976084542 87.72973835380427 l -9.15174981202924 -6.589147671109131 a32.277029380721686,32.277029380721686 0 0,0 0.32851466360267384,-0.4480936319618465 l 9.036972535912934 6.745703746742477" fill="#ff8e0d" stroke="none" /><path d="M 83.17141714833178 87.43820079747576 l -8.862584645695595 -6.615530833219643 a32.05941475881066,32.05941475881066 0 0,0 0.33391263571839,-0.4393898878062007 l 8.747396069753096 6.76710549690687" fill="#ff8b0c" stroke="none" /><path d="M 83.6137871275137 86.86637796730984 l -49.15863861745889 -39.40086609807048 a84.0,84.0 0 0,0 0.9140060316944298,-1.1204633215676711 l 48.47313409368807 40.241213589246236" fill="#4dd2ff" stroke="none" /><path d="M 83.84228863543731 86.58626213691792 l -4.342217786576547 -3.6048032929524174 a26.643532766533948,26.643532766533948 0 0,0 0.2959834958876385,-0.3503511011305596 l 4.279523677201784 3.679013343712093" fill="#ff4006" stroke="none" /><path d="M 84.80347519578584 85.50635884689758 l -8.237401727214548 -7.856397841372626 a32.383223368512176,32.383223368512176 0 0,0 0.3881911703970855,-0.40006512406142813 l 8.100946293114346 7.997027160984178" fill="#ff8f0d" stroke="none" /><path d="M 85.31137513191541 84.99185889309783 l -19.352745178244216 -19.773718305795686 a48.668188982494215,48.668188982494215 0 0,0 0.6037561301417516,-0.5808129188410037 l 19.00950580449004 20.103914311399002" fill="#a7ff21" stroke="none" /><path d="M 85.57189188830299 84.74124197986013 l -7.412889637860356 -7.8396618834878815 a31.789403654999205,31.789403654999205 0 0,0 0.4008373079384178,-0.37253459290081636 l 7.2768444461270825 7.966101062463345" fill="#ff870c" stroke="none" /><path d="M 86.10567301691215 84.25364557470407 l -4.941383819246429 -5.600039574711715 a28.46844811774493,28.46844811774493 0 0,0 0.3702337963742252,-0.32106309987131443 l 4.844256224225431 5.68426766800271" fill="#ff5a08" stroke="none" /><path d="M 86.37877921826538 84.01681056812374 l -7.312537269915629 -8.580557520177921 a32.27382670972847,32.27382670972847 0 0,0 0.425926086956619,-0.35670084884764963 l 7.1637536459999 8.705159526419383" fill="#ff8e0d" stroke="none" /><path d="M 86.65592168130627 83.78471172551755 l -4.189266031262054 -5.090659297184115 a27.59278104904851,27.59278104904851 0 0,0 0.3693446179543521,-0.29865099485592717 l 4.101018014743201 5.162016389304176" fill="#ff4e07" stroke="none" /><path d="M 87.22198572758235 83.33499621200491 l -9.099693568349313 -11.867761653191808 a35.95487177125995,35.95487177125995 0 0,0 0.4943860721464382,-0.372361339842538 l 8.894061342444484 12.0226395825402" fill="#ffbe11" stroke="none" /><path d="M 87.51073957382395 83.11751280151077 l -6.638496314827419 -8.973656183627739 a32.16226404561089,32.16226404561089 0 0,0 0.44790498841929877,-0.3254220225923702 l 6.483046010054339 9.086597441036776" fill="#ff8c0c" stroke="none" /><line stroke="#e1ed5e" stroke-width="0.3" x1="56.762969772571076" x2="54.21961505331055" y1="26.818313649435495" y2="22.513508569990535" /><path d="M 56.25429882871897 25.957352633546506 a86.0,86.0 0 0,1 42.265352541879196,-11.944610805530505" fill="none" id="id12" stroke="none" /><text fill="#e1ed5e" style="font-size:6.75px; font-family:Arial;" text-anchor="middle"><textPath startOffset="22.20632615414155" xlink:href="#id12">December</textPath></text><path d="M 89.3179101791058 81.91981866633112 l -2.771193596871121 -4.690438255268083 a26.447910147737552,26.447910147737552 0 0,0 0.3939520339845678,-0.22820244592817274 l 2.6900448304212334 4.7374448585863025" fill="#ff3e05" stroke="none" /><path d="M 90.26544431104013 81.39251694778311 l -7.91034161589912 -15.120520366637926 a38.06468987817059,38.06468987817059 0 0,0 0.5831864172136917,-0.29873073398018757 l 7.6488947110966645 15.254443625930618" fill="#ffd914" stroke="none" /><path d="M 90.91171255644093 81.06846463323043 l -2.4393225031948385 -5.081278571676132 a26.636460431651034,26.636460431651034 0 0,0 0.415049058432955,-0.1948710981345456 l 2.351495233462275 5.122514652450685" fill="#ff4006" stroke="none" /><path d="M 91.23893434514133 80.91482961587045 l -0.48343282989223696 -1.0531136611969716 a22.158773353342795,22.158773353342795 0 0,0 0.3480171278464005,-0.15614514080889585 l 0.4652335835790621 1.0612791325223963" fill="#ff0000" stroke="none" /><path d="M 91.56875222667455 80.76684994638697 l -4.642075130180675 -10.589384862033972 a32.56217683961442,32.56217683961442 0 0,0 0.5152828688337201,-0.22061723291902724 l 4.459108503556647 10.667721622915785" fill="#ff910d" stroke="none" /><path d="M 92.23578459929587 80.48803036053334 l -4.082038000078588 -10.258422443748698 a32.04075474179608,32.04075474179608 0 0,0 0.5142035121000822,-0.19950297406396414 l 3.904851322978829 10.327168121703213" fill="#ff8a0c" stroke="none" /><path d="M 92.91201910852362 80.23233633223022 l -2.1156899095378385 -5.900445725993903 a27.268285535831943,27.268285535831943 0 0,0 0.44319793198667917,-0.15462305605063997 l 2.013809973487874 5.935989635216753" fill="#ff4906" stroke="none" /><path d="M 93.59665428221793 80.00007090966166 l -3.341279313286878 -10.4360052200802 a31.957844331935913,31.957844331935913 0 0,0 0.5253483485722765,-0.16322828916612864 l 3.161145592003873 10.491973644128853" fill="#ff890c" stroke="none" /><path d="M 94.28887869178378 79.79150937346287 l -5.303087970179431 -18.764686959616466 a40.49964663043569,40.49964663043569 0 0,0 0.67249106027268,-0.1838172102694987 l 4.979299020683028 18.853190710712262" fill="#fff717" stroke="none" /><path d="M 95.33964822691252 79.52364482259891 l -1.4144633848472583 -6.214778639847911 a27.373710081999604,27.373710081999604 0 0,0 0.46034404201763235,-0.10061337739844828 l 1.3072766186761051 6.2382055153422264" fill="#ff4b06" stroke="none" /><path d="M 96.40284397218896 79.31037775812273 l -4.417565512348033 -25.408339525056363 a46.78950566560802,46.78950566560802 0 0,0 0.7946881014343581,-0.13113034588707273 l 3.9795482047747894 25.480616133883064" fill="#bdff1f" stroke="none" /><path d="M 96.75951476605007 79.25152402106235 l -0.8369494500896947 -5.358896679681485 a26.423860065074198,26.423860065074198 0 0,0 0.4499996198134855,-0.06631824643752895 l 0.7445808498475605 5.372509410279982" fill="#ff3d05" stroke="none" /><path d="M 97.47563105711357 79.15227682838746 l -0.6731387306466485 -5.559175473203943 a26.599781039698684,26.599781039698684 0 0,0 0.4550250966100314,-0.051127371407537606 l 0.5773469305268991 5.569938798082079" fill="#ff4006" stroke="none" /><path d="M 98.91598698831166 79.02799685794201 l -0.364164909839997 -7.045365277946919 a28.05477058317695,28.05477058317695 0 0,0 0.48248750434898396,-0.020776926876695676 l 0.24283657310168888 7.050589931347806" fill="#ff5407" stroke="none" /><path d="M 99.63851952072746 79.00311137660856 l -0.24345844944623884 -14.141482709477431 a35.14357823321439,35.14357823321439 0 0,0 0.6049389287187711,-0.005206900345518185 l 3.4641775623592363e-15 14.143578233214392" fill="#ffb310" stroke="none" /></svg>